<?xml version="1.0" encoding="UTF-8" standalone="no"?>
<svg id="svg2" xmlns:rdf="http://www.w3.org/1999/02/22-rdf-syntax-ns#" xmlns="http://www.w3.org/2000/svg" enable-background="new 0 0 90 90" xml:space="preserve" height="100%" width="100%" version="1.1" y="0px" x="0px" xmlns:cc="http://creativecommons.org/ns#" xmlns:dc="http://purl.org/dc/elements/1.1/" viewBox="0 0 80.2 83.5"><metadata id="metadata14"><rdf:RDF><cc:Work rdf:about=""><dc:format>image/svg+xml</dc:format><dc:type rdf:resource="http://purl.org/dc/dcmitype/StillImage"/><dc:title/></cc:Work></rdf:RDF></metadata><path id="path4" fill="#FFF" d="m80.2,43.7c0,22-17.8,39.8-39.8,39.8s-39.8-17.9-39.8-39.8c0-7.3,2-14.2,5.4-20.1l-6-6,4.8-4.8-4.2-4.2,8.6-8.6,10,10c6.2-3.8,13.5-6.1,21.2-6.1,22,0,39.8,17.8,39.8,39.8zm-11.7-6c0-4.4-3.6-8-8-8h-41c-4.4,0-8,3.6-8,8s3.6,8,8,8h41c4.4,0,8-3.6,8-8zm-10.2-4c-2.1,0-3.9,1.7-3.9,3.9s1.7,3.9,3.9,3.9,3.9-1.7,3.9-3.9-1.8-3.9-3.9-3.9zm-35,0c-2.1,0-3.9,1.7-3.9,3.9s1.7,3.9,3.9,3.9,3.9-1.7,3.9-3.9-1.8-3.9-3.9-3.9z"/></svg>
